<?xml version="1.0" standalone="no"?>
<!DOCTYPE svg PUBLIC "-//W3C//DTD SVG 20010904//EN"
 "http://www.w3.org/TR/2001/REC-SVG-20010904/DTD/svg10.dtd">
<svg version="1.0" xmlns="http://www.w3.org/2000/svg"
 width="2500.000000pt" height="2500.000000pt" viewBox="0 0 2500.000000 2500.000000"
 preserveAspectRatio="xMidYMid meet">
<metadata>
Created by potrace 1.14, written by Peter Selinger 2001-2017
</metadata>
<g transform="translate(0.000000,2500.000000) scale(0.100000,-0.100000)"
fill="#000000" stroke="none">
<path d="M5633 24953 c-6 -16 3 -24409 9 -24691 4 -166 8 -216 18 -222 8 -5
17 -7 20 -5 3 1 54 6 113 10 60 3 116 8 125 10 10 1 53 6 97 9 76 7 128 12
205 21 19 3 105 12 190 20 85 9 169 18 185 20 17 2 57 7 90 10 33 3 76 8 95
10 19 2 103 11 185 20 83 8 170 17 195 20 48 5 508 52 600 60 30 3 73 8 95 10
22 2 76 7 120 10 44 4 90 8 102 10 12 2 66 6 120 10 54 4 109 8 123 10 14 2
70 6 125 10 55 3 120 8 145 10 25 3 83 7 130 10 47 3 117 7 155 10 39 2 111 7
160 10 50 3 113 8 140 10 28 2 95 7 150 10 55 3 125 8 155 10 30 2 105 7 165
10 61 3 128 8 150 10 22 2 99 7 170 10 72 4 141 8 155 10 14 2 99 6 190 10 91
3 177 8 192 11 76 15 74 -89 84 5014 4 1977 7 4005 8 4507 1 502 4 909 7 905
5 -6 65 -174 326 -912 30 -85 77 -220 105 -300 28 -80 57 -150 65 -156 7 -6
13 -16 13 -23 0 -6 4 -19 10 -29 5 -9 66 -179 135 -377 114 -325 180 -512 265
-750 16 -44 54 -152 85 -240 31 -88 85 -241 120 -340 35 -99 105 -297 155
-440 51 -143 127 -359 170 -480 43 -121 109 -305 145 -410 37 -104 90 -253
117 -330 27 -77 54 -151 58 -165 4 -14 32 -90 60 -170 29 -80 58 -163 65 -185
8 -22 34 -98 60 -170 26 -71 61 -173 80 -225 43 -123 121 -341 128 -360 3 -8
78 -220 166 -470 88 -250 178 -507 201 -570 23 -63 47 -133 55 -155 7 -22 35
-103 63 -180 134 -376 151 -426 150 -452 0 -15 43 -147 95 -293 53 -146 121
-337 152 -425 31 -88 92 -259 135 -380 43 -121 117 -330 165 -465 111 -315
203 -570 214 -595 5 -11 35 -94 67 -185 31 -91 60 -168 63 -172 12 -13 119
-22 546 -43 61 -3 146 -8 190 -10 44 -3 130 -7 190 -10 61 -3 137 -8 170 -10
33 -2 116 -7 185 -10 69 -3 141 -8 160 -10 19 -3 80 -7 135 -10 55 -3 125 -7
155 -10 110 -8 197 -15 275 -20 44 -3 100 -7 125 -10 25 -2 86 -7 135 -10 50
-3 108 -8 130 -10 22 -2 76 -7 120 -10 44 -3 94 -8 110 -10 17 -2 71 -7 120
-10 50 -3 104 -8 120 -10 17 -2 62 -7 100 -10 66 -5 125 -11 220 -20 96 -9
154 -15 218 -20 37 -4 76 -8 85 -9 9 -2 53 -7 97 -11 44 -3 94 -8 110 -10 17
-3 77 -9 135 -15 58 -6 121 -13 140 -15 19 -2 60 -7 90 -10 30 -3 71 -8 90
-10 108 -14 392 -46 435 -51 28 -3 59 -7 70 -9 11 -2 58 -7 105 -10 47 -4 96
-8 110 -11 41 -6 180 -7 187 -1 17 17 21 150 24 815 9 1628 0 24075 -10 24081
-7 5 -4877 7 -4903 2 -4 0 -8 -796 -8 -1768 -1 -973 -3 -2573 -5 -3558 -2
-984 -5 -2639 -7 -3677 -2 -1038 -6 -1884 -10 -1880 -4 4 -34 86 -68 182 -34
96 -83 236 -110 310 -42 119 -119 335 -205 583 -16 45 -33 77 -41 77 -8 0 -14
6 -14 12 0 7 -11 42 -24 78 -13 36 -40 110 -59 165 -44 125 -191 540 -264 745
-30 85 -65 184 -78 220 -13 36 -39 110 -58 165 -19 55 -56 159 -81 230 -26 72
-54 150 -62 175 -8 25 -19 54 -24 65 -4 11 -29 81 -55 155 -25 74 -57 164 -70
200 -13 36 -51 144 -85 240 -34 96 -97 274 -140 395 -43 121 -108 306 -145
410 -37 105 -91 260 -122 345 -57 160 -89 251 -143 405 -17 50 -40 113 -50
140 -25 65 -184 518 -216 615 -14 41 -30 84 -35 95 -4 11 -38 106 -75 210 -36
105 -101 289 -144 410 -171 481 -194 546 -251 710 -33 94 -63 179 -68 190 -19
42 -31 89 -31 125 0 20 -30 119 -66 221 -36 101 -83 234 -104 294 -21 61 -62
175 -90 255 -29 80 -67 188 -85 240 -18 52 -122 345 -230 650 -108 305 -253
715 -321 910 -69 195 -127 362 -131 370 -3 8 -27 77 -53 152 -27 75 -52 143
-57 150 -12 19 -4933 19 -4940 1z"/>
</g>
</svg>
